<svg width="146" height="39" viewBox="0 0 146 39" fill="none" xmlns="http://www.w3.org/2000/svg">
<path fill-rule="evenodd" clip-rule="evenodd" d="M105.281 11.159C107.244 11.159 108.682 12.5901 108.682 14.5597V26.8534H82.4621C82.0742 26.8676 81.6875 26.8017 81.3262 26.6598C80.9648 26.5179 80.6366 26.303 80.362 26.0286C80.0874 25.7542 79.8723 25.4262 79.7302 25.0649C79.588 24.7037 79.5218 24.3171 79.5357 23.9291V4.66831H72.8069V23.9167C72.8069 29.6328 76.9863 33.5678 82.4601 33.5678H115.411V14.0688C115.411 8.40449 110.854 4.42807 105.281 4.42807C102.883 4.42807 99.9729 5.55058 98.5625 7.06038C97.0051 5.61064 93.9585 4.41357 91.5727 4.41357C85.6578 4.41357 81.3769 8.65509 81.3769 14.6239V23.9105H88.1057V14.6839C88.1057 12.5963 89.5555 11.1631 91.6265 11.1631C93.7494 11.1631 95.1473 12.6274 95.1473 14.6839V23.9105H101.876V14.5597C101.88 12.5777 103.311 11.159 105.281 11.159Z" fill="#3B347A"/>
<path fill-rule="evenodd" clip-rule="evenodd" d="M64.1058 14.3994C64.1058 16.2509 62.9606 17.2989 61.2064 17.2989H52.4665V24.0029H61.2022C66.9805 24.0029 70.843 19.6723 70.8451 14.3124C70.8451 8.74336 67.0053 4.76072 61.3182 4.75037H52.4665C46.8395 4.75037 42.8713 8.80341 42.8713 14.3456V24.0091C42.8713 29.6009 47.0362 33.6498 52.5121 33.6498H74.8795L75.0534 33.2543C73.0901 31.7693 71.5803 29.2716 71.0501 26.9458H52.5514C50.6875 26.9458 49.6002 25.784 49.6002 23.9925V14.4015C49.5881 14.0174 49.6549 13.635 49.7963 13.2778C49.9377 12.9205 50.1509 12.5961 50.4226 12.3244C50.6942 12.0527 51.0187 11.8395 51.376 11.6981C51.7332 11.5567 52.1156 11.4899 52.4997 11.502H61.1981C63.0165 11.4916 64.1058 12.5665 64.1058 14.3994Z" fill="#3B347A"/>
<path fill-rule="evenodd" clip-rule="evenodd" d="M135.445 4.75961H126.794C121.258 4.75961 117.168 8.93278 117.168 14.3962V24.0245C117.168 29.4797 121.353 33.6591 126.802 33.6591H136.014V26.9551H126.746C125.988 26.9551 125.261 26.654 124.725 26.118C124.189 25.582 123.888 24.855 123.888 24.097V14.3507C123.876 13.9721 123.942 13.595 124.081 13.2428C124.221 12.8906 124.431 12.5707 124.699 12.3028C124.966 12.035 125.286 11.8249 125.638 11.6855C125.991 11.5462 126.368 11.4805 126.746 11.4926H135.492C137.17 11.4926 138.353 12.6731 138.353 14.3507V33.6591H145.081V14.3983C145.081 8.87894 140.966 4.75961 135.445 4.75961Z" fill="#3B347A"/>
<path d="M14.7673 33.2096C14.643 33.0529 14.5754 32.8587 14.5754 32.6587C14.5754 32.4587 14.643 32.2645 14.7673 32.1078L16.9917 29.2808C17.0057 29.2626 17.0152 29.2412 17.0192 29.2186C17.0233 29.1959 17.0217 29.1726 17.0148 29.1506C17.0079 29.1286 16.9958 29.1087 16.9795 29.0924C16.9632 29.0761 16.9432 29.064 16.9212 29.0572C14.8581 28.4038 13.0564 27.1107 11.777 25.3652C10.4976 23.6196 9.80701 21.5122 9.80511 19.3481H12.2158L12.4105 18.9504L6.86421 14.5826C6.80969 14.5394 6.74218 14.5159 6.67264 14.5159C6.60309 14.5159 6.53559 14.5394 6.48107 14.5826L0.982422 18.9608L1.1274 19.3481H3.5381C3.5381 27.4252 8.93734 33.7957 16.3082 35.3987C16.3263 35.4029 16.3452 35.4013 16.3623 35.3941C16.3794 35.387 16.3939 35.3747 16.4037 35.359C16.4135 35.3433 16.4181 35.3249 16.417 35.3064C16.4158 35.2879 16.4089 35.2702 16.3973 35.2558L14.7673 33.2096Z" fill="#3B347A"/>
<path d="M6.12239 14.1328C6.2791 14.0085 6.47325 13.9408 6.67329 13.9408C6.87332 13.9408 7.06747 14.0085 7.22419 14.1328L10.0512 16.3571C10.0689 16.3714 10.0897 16.3811 10.1119 16.3857C10.1341 16.3903 10.1571 16.3895 10.1789 16.3834C10.2008 16.3774 10.2209 16.3662 10.2376 16.3508C10.2543 16.3354 10.267 16.3163 10.2748 16.295C10.9271 14.2304 12.2196 12.4271 13.9652 11.1462C15.7108 9.86532 17.8188 9.17336 19.9839 9.17058V11.5813L20.3816 11.776L24.7494 6.22969C24.7933 6.17549 24.8173 6.10786 24.8173 6.03812C24.8173 5.96838 24.7933 5.90075 24.7494 5.84655L20.3712 0.3479L19.986 0.492874V2.90358C11.9089 2.90358 5.53835 8.30281 3.93535 15.6737C3.93122 15.6918 3.93282 15.7107 3.93993 15.7278C3.94705 15.7449 3.95933 15.7594 3.97506 15.7692C3.99079 15.779 4.00919 15.7836 4.02768 15.7825C4.04618 15.7813 4.06386 15.7744 4.07826 15.7627L6.12239 14.1328Z" fill="#3B347A"/>
<path d="M25.197 5.48616C25.3213 5.64287 25.389 5.83703 25.389 6.03706C25.389 6.2371 25.3213 6.43125 25.197 6.58796L22.9748 9.41495C22.9607 9.43304 22.9511 9.45426 22.947 9.47682C22.9428 9.49938 22.9441 9.52261 22.9508 9.54454C22.9575 9.56648 22.9694 9.58648 22.9855 9.60286C23.0015 9.61923 23.0213 9.6315 23.0431 9.63862C25.1061 10.2923 26.9076 11.5854 28.187 13.3309C29.4663 15.0764 30.157 17.1836 30.1592 19.3477H27.7485L27.5539 19.7454L33.1001 24.1132C33.1548 24.1569 33.2227 24.1807 33.2927 24.1807C33.3627 24.1807 33.4307 24.1569 33.4854 24.1132L38.9819 19.7371L38.837 19.3519H36.4262C36.4262 11.2748 31.027 4.90419 23.6561 3.3012C23.6381 3.29706 23.6192 3.29866 23.6021 3.30578C23.5849 3.3129 23.5705 3.32517 23.5607 3.3409C23.5509 3.35663 23.5462 3.37503 23.5474 3.39353C23.5485 3.41203 23.5554 3.42971 23.5671 3.4441L25.197 5.48616Z" fill="#3B347A"/>
<path d="M33.8444 24.5629C33.6876 24.6872 33.4935 24.7549 33.2935 24.7549C33.0934 24.7549 32.8993 24.6872 32.7426 24.5629L29.9156 22.3407C29.8975 22.3266 29.8763 22.317 29.8537 22.3129C29.8311 22.3087 29.8079 22.31 29.786 22.3167C29.764 22.3234 29.744 22.3353 29.7277 22.3514C29.7113 22.3674 29.699 22.3872 29.6919 22.409C29.0385 24.4722 27.7454 26.2739 25.9999 27.5533C24.2544 28.8326 22.147 29.5232 19.9828 29.5251V27.1144L19.5852 26.9198L15.2173 32.466C15.174 32.5209 15.1504 32.5887 15.1504 32.6586C15.1504 32.7286 15.174 32.7964 15.2173 32.8513L19.5934 38.3478L19.9807 38.2029V35.7922C28.0578 35.7922 34.4284 30.3929 36.0314 23.022C36.0355 23.004 36.0339 22.9851 36.0268 22.968C36.0197 22.9508 36.0074 22.9364 35.9917 22.9266C35.976 22.9168 35.9576 22.9121 35.9391 22.9133C35.9206 22.9144 35.9029 22.9213 35.8885 22.933L33.8444 24.5629Z" fill="#3B347A"/>
</svg>
