<svg width="22" height="22" viewBox="0 0 22 22" fill="none" xmlns="http://www.w3.org/2000/svg">
<rect x="0.0351562" y="0.47168" width="21.4536" height="21.4536" rx="5" fill="#4B75A7"/>
<path d="M17.9183 15.198C17.8768 15.1285 17.62 14.5704 16.3841 13.4234C15.0904 12.2223 15.2642 12.4174 16.8225 10.3406C17.7715 9.07583 18.151 8.30345 18.0322 7.97325C17.9193 7.6585 17.2212 7.74153 17.2212 7.74153L14.9002 7.75505C14.9002 7.75505 14.7283 7.73188 14.5999 7.80815C14.4754 7.88346 14.3953 8.05725 14.3953 8.05725C14.3953 8.05725 14.0274 9.03625 13.5369 9.86849C12.5029 11.6247 12.0887 11.7174 11.9198 11.6083C11.5268 11.3544 11.6253 10.5868 11.6253 10.0423C11.6253 8.34013 11.8831 7.6305 11.1223 7.44706C10.8693 7.38624 10.6839 7.34569 10.038 7.33893C9.20964 7.33024 8.50773 7.34182 8.11092 7.53589C7.84637 7.66526 7.64266 7.95394 7.76721 7.97035C7.92072 7.99063 8.26829 8.06401 8.4527 8.31503C8.69117 8.63847 8.68248 9.36644 8.68248 9.36644C8.68248 9.36644 8.81958 11.3698 8.36291 11.6189C8.04913 11.7898 7.61949 11.4413 6.69745 9.84725C6.22533 9.03142 5.8681 8.12869 5.8681 8.12869C5.8681 8.12869 5.79955 7.9607 5.67693 7.87091C5.52825 7.76181 5.3197 7.72705 5.3197 7.72705L3.11261 7.74057C3.11261 7.74057 2.78145 7.75022 2.6598 7.89408C2.55166 8.02249 2.65111 8.28703 2.65111 8.28703C2.65111 8.28703 4.37932 12.3295 6.33539 14.3676C8.13023 16.2359 10.1674 16.1132 10.1674 16.1132H11.0904C11.0904 16.1132 11.3694 16.0823 11.5114 15.9288C11.6427 15.7879 11.6378 15.5233 11.6378 15.5233C11.6378 15.5233 11.6195 14.2846 12.1949 14.1021C12.7617 13.9226 13.4896 15.2993 14.2611 15.8294C14.8442 16.2301 15.2874 16.1422 15.2874 16.1422L17.3506 16.1132C17.3506 16.1132 18.43 16.0466 17.9183 15.198Z" fill="white"/>
</svg>
