<svg width="22" height="22" viewBox="0 0 22 22" fill="none" xmlns="http://www.w3.org/2000/svg">
<path d="M16.1312 0.480469H5.44696C2.48667 0.480469 0.0708008 2.89634 0.0708008 5.85663V16.5579C0.0708008 19.5012 2.48667 21.9171 5.44696 21.9171H16.1482C19.1085 21.9171 21.5244 19.5012 21.5244 16.5409V5.85663C21.5074 2.89634 19.0915 0.480469 16.1312 0.480469ZM7.21633 17.8339H4.15396V8.98705H7.21633V17.8339ZM5.66813 7.626C4.80046 7.626 4.10292 6.92846 4.10292 6.06079C4.10292 5.19312 4.80046 4.49558 5.66813 4.49558C6.5358 4.49558 7.23334 5.19312 7.23334 6.06079C7.21633 6.92846 6.51879 7.626 5.66813 7.626ZM17.4412 17.8339H17.4242H14.8723V13.5466C14.8723 12.5088 14.7361 11.1818 13.3241 11.1818C11.8779 11.1818 11.6398 12.3046 11.6398 13.4785V17.8339H9.08778V8.98705H11.4696V10.178H11.5377C11.912 9.49745 12.7796 8.97004 14.1407 8.97004C16.9479 8.97004 17.4412 10.5863 17.4412 12.9851V17.8339Z" fill="#0097D3"/>
</svg>
