<svg width="22" height="22" viewBox="0 0 22 22" fill="none" xmlns="http://www.w3.org/2000/svg">
<path d="M1.44544 1.93252C-0.240459 3.68367 0.104586 5.54388 0.104586 11.1951C0.104586 15.8881 -0.714226 20.5927 3.57113 21.7002C4.9093 22.0444 16.766 22.0444 18.1024 21.6984C19.8866 21.2381 21.3383 19.7909 21.5367 17.2674C21.5644 16.9152 21.5644 5.4813 21.5358 5.12195C21.3249 2.434 19.6703 0.884869 17.49 0.57111C16.9903 0.498704 16.8902 0.477251 14.3265 0.472781C5.23289 0.477251 3.23949 0.072314 1.44544 1.93252Z" fill="url(#paint0_linear)"/>
<path d="M10.8302 3.27815C7.58444 3.27815 4.50227 2.98942 3.325 6.0108C2.83872 7.25869 2.90934 8.87933 2.90934 11.1999C2.90934 13.2362 2.84408 15.15 3.325 16.3881C4.49959 19.4113 7.60678 19.1216 10.8284 19.1216C13.9365 19.1216 17.1411 19.4452 18.3327 16.3881C18.8199 15.1277 18.7484 13.5312 18.7484 11.1999C18.7484 8.10521 18.9191 6.10735 17.4182 4.60738C15.8986 3.08775 13.8435 3.27815 10.8266 3.27815H10.8302ZM10.1204 4.70571C16.8908 4.69498 17.7526 3.94232 17.277 14.3983C17.1081 18.0963 14.2923 17.6905 10.8311 17.6905C4.52015 17.6905 4.33869 17.5099 4.33869 11.1963C4.33869 4.8094 4.83927 4.70929 10.1204 4.70392V4.70571ZM15.0583 6.02064C14.5336 6.02064 14.1081 6.44613 14.1081 6.97085C14.1081 7.49557 14.5336 7.92107 15.0583 7.92107C15.5831 7.92107 16.0086 7.49557 16.0086 6.97085C16.0086 6.44613 15.5831 6.02064 15.0583 6.02064ZM10.8302 7.13176C8.58382 7.13176 6.76294 8.95352 6.76294 11.1999C6.76294 13.4463 8.58382 15.2671 10.8302 15.2671C13.0766 15.2671 14.8965 13.4463 14.8965 11.1999C14.8965 8.95352 13.0766 7.13176 10.8302 7.13176ZM10.8302 8.55931C14.3209 8.55931 14.3253 13.8405 10.8302 13.8405C7.3404 13.8405 7.33504 8.55931 10.8302 8.55931Z" fill="white"/>
<defs>
<linearGradient id="paint0_linear" x1="1.48657" y1="20.5561" x2="21.4254" y2="3.29928" gradientUnits="userSpaceOnUse">
<stop stop-color="#FFDD55"/>
<stop offset="0.5" stop-color="#FF543E"/>
<stop offset="1" stop-color="#C837AB"/>
</linearGradient>
</defs>
</svg>
