<svg width="22" height="22" viewBox="0 0 22 22" fill="none" xmlns="http://www.w3.org/2000/svg">
<rect x="0.140625" y="0.47168" width="21.4536" height="21.4536" rx="5" fill="#E42B26"/>
<path d="M18.6834 7.36573C18.4954 6.68317 17.9447 6.14514 17.2464 5.96134C15.9705 5.62012 10.8668 5.62012 10.8668 5.62012C10.8668 5.62012 5.76327 5.62012 4.48735 5.94833C3.80243 6.13201 3.2383 6.68329 3.05034 7.36573C2.7146 8.61246 2.7146 11.1981 2.7146 11.1981C2.7146 11.1981 2.7146 13.7967 3.05034 15.0304C3.23843 15.7128 3.789 16.251 4.48747 16.4348C5.7767 16.776 10.8669 16.776 10.8669 16.776C10.8669 16.776 15.9705 16.776 17.2464 16.4478C17.9449 16.2641 18.4954 15.7259 18.6835 15.0435C19.0193 13.7967 19.0193 11.2112 19.0193 11.2112C19.0193 11.2112 19.0327 8.61246 18.6834 7.36573Z" fill="#FFFFFE"/>
<path d="M8.72144 13.3435L13.0122 11.1981L8.72144 9.05273V13.3435Z" fill="#E42B26"/>
</svg>
