<svg width="362" height="331" viewBox="0 0 362 331" fill="none" xmlns="http://www.w3.org/2000/svg">
<path fill-rule="evenodd" clip-rule="evenodd" d="M152.791 255.559C152.791 255.559 161.514 281.761 152.992 292.322C144.471 302.883 107.09 308.976 107.09 308.976L192.305 318.651C192.305 318.651 229.88 308.697 233.738 303.219C237.596 297.74 236.989 290.625 233.738 278.235C230.487 265.845 229.269 260.565 229.269 260.565L152.801 255.562L152.791 255.559Z" fill="#C8CEF0"/>
<path d="M225.129 258.659C225.149 258.727 232.715 282.228 232.906 288.884C232.936 289.92 232.993 290.702 233.053 291.484C233.456 296.748 233.885 302.354 218.396 307.202L192.395 315.337L106.51 305.943L105.862 312.036L193.019 321.584L220.231 313.066C240.381 306.762 239.763 298.64 239.183 291.041C239.116 290.172 239.049 289.31 239.032 288.729C238.817 281.171 230.98 256.858 230.98 256.801L225.153 258.673L225.129 258.659Z" fill="#F8F9FF"/>
<path fill-rule="evenodd" clip-rule="evenodd" d="M338.364 9.78572C338.364 9.78572 338.776 0.438965 328.209 0.438965C317.641 0.438965 47.9064 4.86072 47.9064 4.86072C47.9064 4.86072 33.6883 3.2336 31.2493 18.2636C28.8102 33.2935 7.88907 238.03 7.88907 238.03C7.88907 238.03 6.67123 248.591 24.9521 250.215C43.233 251.839 299.769 268.684 299.769 268.684C299.769 268.684 314.195 271.324 316.423 253.046C326.118 173.74 332.922 89.9243 338.364 9.78572Z" fill="#C8CEF0"/>
<path fill-rule="evenodd" clip-rule="evenodd" d="M331.456 9.78572C331.456 9.78572 331.862 0.438965 321.301 0.438965C310.74 0.438965 41.0088 4.86072 41.0088 4.86072C41.0088 4.86072 26.7907 3.2336 24.355 18.2636C21.9194 33.2935 0.994843 238.03 0.994843 238.03C0.994843 238.03 -0.226349 248.591 18.0545 250.215C36.3354 251.839 292.861 268.684 292.861 268.684C292.861 268.684 307.287 271.324 309.518 253.046C319.214 173.74 326.028 89.9243 331.456 9.78572Z" fill="#F8F9FF"/>
<path fill-rule="evenodd" clip-rule="evenodd" d="M316.423 11.5537L34.507 15.1099L15.8202 197.667L299.205 213.146L316.423 11.5537Z" fill="#3B347A"/>
<path fill-rule="evenodd" clip-rule="evenodd" d="M173.94 5.25977C172.598 5.25977 171.32 6.66883 171.095 8.40667C170.87 10.1445 171.766 11.5569 173.108 11.5569C174.45 11.5569 175.728 10.1479 175.953 8.40667C176.178 6.66547 175.282 5.25977 173.923 5.25977H173.94Z" fill="#534D8C"/>
<path fill-rule="evenodd" clip-rule="evenodd" d="M308.02 290.3C308.02 290.3 312.697 237.734 281.303 207.18C249.91 176.626 300.34 290.3 300.34 290.3H308.02Z" fill="#AFE0D9"/>
<path d="M277.589 210.781C277.648 210.872 299.263 243.101 303.329 290.378L305.031 290.241C300.924 242.53 279.072 209.932 279.022 209.845L277.598 210.758L277.589 210.781Z" fill="#6BADA6"/>
<path fill-rule="evenodd" clip-rule="evenodd" d="M306.852 290.3C306.852 290.3 302.179 237.734 333.568 207.18C364.957 176.626 314.531 290.3 314.531 290.3H306.852Z" fill="#AFE0D9"/>
<path fill-rule="evenodd" clip-rule="evenodd" d="M310.036 290.008C310.036 290.008 318.581 259.154 352.012 250.628C385.443 242.102 316.446 292.127 316.446 292.127L310.036 290.008Z" fill="#AFE0D9"/>
<path d="M337.278 210.781C337.214 210.872 315.604 243.101 311.533 290.378L309.831 290.241C313.938 242.53 335.791 209.932 335.841 209.845L337.264 210.758L337.278 210.781Z" fill="#6BADA6"/>
<path d="M354.256 253.676C354.181 253.71 328.515 265.875 313.926 291.343L312.537 290.797C327.26 265.095 353.215 252.788 353.278 252.753L354.25 253.659L354.256 253.676Z" fill="#6BADA6"/>
<path fill-rule="evenodd" clip-rule="evenodd" d="M322.065 290.369H292.802V330.135H322.065V290.369Z" fill="#F2F3F4"/>
<path fill-rule="evenodd" clip-rule="evenodd" d="M322.065 290.369H307.431V330.135H322.065V290.369Z" fill="#C8CEF0"/>
<path fill-rule="evenodd" clip-rule="evenodd" d="M280.244 25.4966C245.292 25.6777 210.305 26.0636 175.282 26.654C140.307 27.2378 105.292 27.8115 70.2737 28.157C67.989 50.8127 65.6674 73.5321 63.3089 96.1576C60.9504 118.783 58.612 141.486 56.3475 164.128C91.5426 166.02 126.732 167.994 161.916 170.049C197.069 172.107 232.242 173.972 267.435 175.645C269.593 150.631 271.728 125.617 273.839 100.603C275.95 75.5886 278.085 50.5532 280.244 25.4966Z" fill="#D7DCF7"/>
<path fill-rule="evenodd" clip-rule="evenodd" d="M272.742 33.2764C240.056 33.3793 207.346 33.6443 174.611 34.0715C141.921 34.4964 109.209 34.8565 76.4768 35.1518C74.4392 55.5563 72.3647 75.9418 70.2534 96.3083C68.1364 116.699 66.0229 137.087 64.0301 157.478C96.8947 159.115 129.755 160.845 162.611 162.668C195.451 164.458 228.31 166.099 261.188 167.593C263.093 145.205 265.012 122.823 266.945 100.448C268.877 78.0733 270.81 55.6826 272.742 33.2764Z" fill="#F5F7FF"/>
<path fill-rule="evenodd" clip-rule="evenodd" d="M75.6481 128.113C82.0224 128.338 88.3431 128.58 94.7006 128.804C94.6335 129.345 94.5899 129.885 94.5463 130.411C88.172 130.17 81.8513 129.932 75.4904 129.707C75.5374 129.18 75.581 128.64 75.6481 128.113ZM74.0143 144.405C80.3528 144.675 86.7036 144.956 93.0668 145.247C93.0232 145.787 92.9561 146.31 92.9125 146.837C86.5381 146.538 80.2175 146.253 73.8566 145.981C73.9036 145.455 73.9706 144.931 74.0143 144.405ZM156.092 150.645C145.883 150.152 135.654 149.638 125.442 149.159C115.229 148.679 104.977 148.213 94.7476 147.719C94.7006 148.259 94.657 148.8 94.6134 149.326C104.846 149.819 115.078 150.286 125.287 150.782C135.496 151.279 145.729 151.789 155.938 152.312C155.981 151.759 156.025 151.202 156.092 150.635V150.645ZM73.7895 146.773C80.1269 147.042 86.4844 147.344 92.8453 147.642C92.7782 148.169 92.7313 148.709 92.6877 149.236C86.3133 148.934 79.9927 148.635 73.6352 148.35C73.6788 147.84 73.7224 147.297 73.7895 146.773ZM73.501 149.595C79.8753 149.88 86.1959 150.182 92.5535 150.497C92.5065 151.037 92.4629 151.561 92.3958 152.087C86.0382 151.772 79.7008 151.473 73.3433 151.172C73.4104 150.662 73.454 150.135 73.501 149.595ZM155.803 153.611C145.594 153.101 135.362 152.567 125.153 152.064C114.944 151.561 104.712 151.104 94.4792 150.591C94.4322 151.135 94.3886 151.675 94.3215 152.185C104.554 152.695 114.786 153.174 124.995 153.684C135.204 154.194 145.437 154.738 155.669 155.248C155.713 154.708 155.756 154.167 155.803 153.611ZM156.317 148.206C146.109 147.709 135.892 147.224 125.666 146.75C115.434 146.277 105.201 145.834 94.969 145.354C94.9254 145.894 94.8818 146.418 94.8348 146.944C105.067 147.424 115.3 147.874 125.509 148.357C135.718 148.84 145.95 149.346 156.159 149.843C156.206 149.303 156.273 148.759 156.317 148.206ZM74.843 136.269C81.1804 136.524 87.5379 136.779 93.872 137.051C93.8082 137.591 93.7613 138.131 93.7176 138.654C87.3802 138.386 81.0227 138.114 74.6852 137.859C74.7322 137.336 74.7759 136.809 74.843 136.269ZM156.877 142.147C146.669 141.7 136.452 141.252 126.227 140.805C116.001 140.358 105.776 139.923 95.5528 139.5C95.5092 140.04 95.4421 140.58 95.3951 141.107C105.628 141.573 115.86 141.999 126.069 142.449C136.278 142.898 146.51 143.365 156.719 143.831C156.766 143.274 156.833 142.721 156.877 142.154V142.147ZM74.5947 138.621C80.9321 138.876 87.2896 139.144 93.6271 139.416C93.5834 139.956 93.5365 140.496 93.4929 141.023C87.1342 140.737 80.7833 140.466 74.4403 140.211C74.484 139.684 74.5511 139.161 74.5947 138.621ZM74.3061 141.456C80.6402 141.711 87.0011 141.999 93.3587 142.284C93.315 142.808 93.2681 143.348 93.201 143.875C86.8446 143.588 80.4937 143.313 74.1485 143.049C74.2156 142.523 74.2592 141.982 74.3061 141.456ZM156.605 145.106C146.397 144.641 136.181 144.175 125.955 143.71C115.722 143.251 105.49 142.825 95.2575 142.368C95.2139 142.908 95.1703 143.449 95.0999 143.975C105.332 144.443 115.565 144.903 125.797 145.357C136.03 145.812 146.246 146.281 156.448 146.767C156.495 146.226 156.538 145.673 156.605 145.116V145.106ZM157.098 139.701C146.891 139.254 136.681 138.813 126.468 138.379C116.259 137.95 106.027 137.554 95.7943 137.118C95.7272 137.658 95.6836 138.198 95.64 138.725C105.872 139.161 116.097 139.592 126.314 140.016C136.531 140.441 146.747 140.889 156.964 141.358C157.008 140.818 157.051 140.261 157.098 139.708V139.701ZM157.659 133.662C147.47 133.256 137.237 132.834 127.028 132.444C116.819 132.055 106.587 131.68 96.3781 131.274C96.3344 131.814 96.2674 132.34 96.2204 132.864C106.453 133.271 116.67 133.671 126.871 134.065C137.083 134.464 147.312 134.894 157.525 135.296C157.568 134.756 157.612 134.216 157.659 133.662ZM75.4166 130.482C81.7909 130.72 88.1116 130.962 94.4691 131.217C94.4255 131.743 94.3584 132.267 94.3114 132.793C87.9774 132.552 81.6165 132.297 75.2824 132.059C75.326 131.549 75.3697 131.022 75.4166 130.482ZM75.1482 133.303C81.4823 133.545 87.8432 133.8 94.1773 134.055C94.1337 134.595 94.0665 135.135 94.0229 135.662C87.6855 135.39 81.328 135.135 74.9905 134.897C75.0342 134.37 75.1012 133.843 75.1482 133.303ZM157.407 136.608C147.195 136.19 136.985 135.769 126.777 135.346C116.569 134.924 106.344 134.518 96.103 134.129C96.0594 134.669 95.9922 135.212 95.9486 135.736C106.177 136.158 116.4 136.574 126.619 136.984C136.831 137.396 147.04 137.839 157.249 138.259C157.293 137.718 157.36 137.161 157.407 136.608ZM157.92 131.203C147.711 130.797 137.479 130.398 127.294 130.016C117.108 129.633 106.852 129.264 96.6196 128.888C96.5726 129.432 96.5291 129.972 96.4854 130.495C106.694 130.888 116.927 131.253 127.136 131.653C137.345 132.052 147.577 132.448 157.763 132.854C157.81 132.314 157.853 131.757 157.92 131.203Z" fill="#EDF0FF"/>
<path fill-rule="evenodd" clip-rule="evenodd" d="M173.87 132.387C167.938 132.163 162.654 137.118 162.05 143.459C161.446 149.799 165.831 155.201 171.743 155.499C177.654 155.798 183.005 150.833 183.589 144.405C184.173 137.977 179.804 132.602 173.86 132.377L173.87 132.387Z" fill="#FFE5E0"/>
<path fill-rule="evenodd" clip-rule="evenodd" d="M252.009 135.494C241.823 135.158 231.591 134.779 221.382 134.41C211.173 134.041 200.94 133.675 190.731 133.286L188.648 156.079C198.881 156.589 209.112 157.079 219.342 157.549C229.572 158.018 239.79 158.466 249.996 158.891C250.667 151.085 251.338 143.283 252.009 135.484V135.494Z" fill="#FFE5E0"/>
<path fill-rule="evenodd" clip-rule="evenodd" d="M178.707 67.3585L169.213 67.3149C168.743 72.3876 168.274 77.4568 167.804 82.5227C170.96 82.5697 174.117 82.6099 177.275 82.6435C177.744 77.5541 178.214 72.4479 178.707 67.3585Z" fill="#D7DCF7"/>
<path fill-rule="evenodd" clip-rule="evenodd" d="M163.986 65.0004C160.853 65.0004 157.696 64.9702 154.515 64.9702C153.935 70.7675 153.398 76.5614 152.838 82.3419C156.015 82.3889 159.172 82.4191 162.329 82.4627C162.889 76.652 163.426 70.8279 163.986 65.0172V65.0004Z" fill="#D7DCF7"/>
<path fill-rule="evenodd" clip-rule="evenodd" d="M149.224 63.2763C146.088 63.2763 142.931 63.2763 139.753 63.2461C139.127 69.5511 138.516 75.8516 137.918 82.1476C141.095 82.1946 144.252 82.2382 147.409 82.2684C148.013 75.9477 148.618 69.617 149.224 63.2763Z" fill="#D7DCF7"/>
<path fill-rule="evenodd" clip-rule="evenodd" d="M134.533 60.8574C131.376 60.8574 128.22 60.8574 125.063 60.8574C124.392 67.9005 123.705 74.9379 123.003 81.9698C126.16 82 129.317 82.0436 132.474 82.0738C133.168 75.0017 133.862 67.943 134.533 60.8574Z" fill="#D7DCF7"/>
<path fill-rule="evenodd" clip-rule="evenodd" d="M119.366 63.6217L109.895 63.5747C109.291 69.6404 108.664 75.706 108.083 81.7717C111.24 81.8187 114.394 81.8489 117.551 81.8925C118.134 75.8134 118.739 69.7231 119.366 63.6217Z" fill="#D7DCF7"/>
<path fill-rule="evenodd" clip-rule="evenodd" d="M104.711 60.7974C101.554 60.7974 98.3975 60.7974 95.2171 60.7974C94.5461 67.7319 93.8282 74.6565 93.1337 81.5978C96.2907 81.628 99.4476 81.6749 102.605 81.7186C103.323 74.7504 104.017 67.799 104.711 60.8175V60.7974Z" fill="#D7DCF7"/>
<path fill-rule="evenodd" clip-rule="evenodd" d="M90.9196 49.3398H81.4554C80.3773 60.0151 79.287 70.686 78.1844 81.3523C81.3648 81.3993 84.5218 81.4429 87.6787 81.5033C88.7747 70.781 89.8572 60.0599 90.9263 49.3398H90.9196Z" fill="#D7DCF7"/>
<path d="M174.027 67.0542C163.963 65.4338 154.774 64.1556 144.565 63.0015C139.683 62.1896 134.758 61.3777 129.83 60.5692C124.771 61.5153 119.711 62.4312 114.629 63.3605C109.791 62.4144 104.957 61.4851 100.099 60.539C95.4622 56.7379 90.7855 52.9099 86.1255 49.1323C85.9914 49.2833 85.8806 49.4343 85.7464 49.5852C90.4433 53.4132 95.1402 57.2579 99.837 61.0858C104.739 62.0319 109.687 62.978 114.599 63.9543C119.682 63.0373 124.749 62.1158 129.8 61.1898C139.985 62.8405 148.923 64.1019 159.195 65.2895C164.116 66.0835 169.02 66.8742 173.907 67.6614C173.95 67.4803 173.997 67.2555 174.041 67.0609L174.027 67.0542Z" fill="#F9BFB3"/>
<path d="M85.7027 48.3203C85.4963 48.3313 85.2992 48.4104 85.1424 48.5451C85.0069 48.7076 84.9207 48.9055 84.8942 49.1154C84.8664 49.3061 84.9146 49.5001 85.0284 49.6556C85.1642 49.798 85.3486 49.8842 85.545 49.8971C85.7593 49.8949 85.9655 49.815 86.1254 49.6723C86.2723 49.5199 86.3674 49.325 86.3972 49.1154C86.4149 48.9178 86.3588 48.7205 86.2395 48.5619C86.1711 48.4873 86.0883 48.4273 85.996 48.3858C85.9037 48.3443 85.8039 48.322 85.7027 48.3203Z" fill="#F9BFB3"/>
<path d="M85.3875 48.8299C85.425 48.7905 85.4703 48.7594 85.5206 48.7386C85.5709 48.7178 85.6249 48.7077 85.6793 48.7091C85.7301 48.7089 85.7803 48.7196 85.8266 48.7404C85.8729 48.7613 85.9142 48.7918 85.9477 48.8299C85.9816 48.8687 86.0071 48.914 86.0226 48.9631C86.0382 49.0121 86.0436 49.0639 86.0383 49.1151C86.0216 49.217 85.9749 49.3116 85.9041 49.3868C85.8626 49.4274 85.8131 49.459 85.7589 49.4798C85.7047 49.5005 85.6468 49.51 85.5887 49.5076C85.5408 49.5042 85.4941 49.4913 85.4511 49.4697C85.4082 49.448 85.3701 49.4181 85.3388 49.3816C85.3076 49.345 85.284 49.3027 85.2693 49.2569C85.2546 49.2112 85.2491 49.1629 85.2533 49.1151C85.2534 49.0606 85.2655 49.0068 85.2887 48.9576C85.3119 48.9083 85.3456 48.8647 85.3875 48.8299Z" fill="#FBFCFC"/>
<path d="M99.9847 59.8975C99.77 59.9017 99.5644 59.9853 99.4077 60.1322C99.2509 60.279 99.1541 60.4786 99.1359 60.6926C99.1243 60.7908 99.1323 60.8902 99.1594 60.9852C99.1865 61.0802 99.2321 61.1689 99.2936 61.2462C99.3601 61.3222 99.4429 61.3822 99.5359 61.4217C99.6288 61.4612 99.7295 61.4792 99.8304 61.4743C100.037 61.4592 100.233 61.3731 100.384 61.2308C100.535 61.0884 100.632 60.8983 100.659 60.6926C100.675 60.5921 100.667 60.4892 100.635 60.3924C100.604 60.2956 100.55 60.2076 100.478 60.1357C100.42 60.0604 100.345 59.9996 100.259 59.9582C100.174 59.9169 100.08 59.8961 99.9847 59.8975Z" fill="#F9BFB3"/>
<path d="M99.649 60.4074C99.6871 60.3688 99.7326 60.3382 99.7827 60.3175C99.8328 60.2967 99.8866 60.2862 99.9409 60.2866C100.042 60.2931 100.137 60.336 100.209 60.4074C100.275 60.4871 100.308 60.5894 100.3 60.6926C100.281 60.8026 100.225 60.9031 100.142 60.9777C100.068 61.0435 99.9728 61.0804 99.8738 61.0817C99.8214 61.0908 99.7677 61.0874 99.7169 61.0716C99.6662 61.0559 99.6199 61.0283 99.5819 60.9912C99.528 60.9014 99.5044 60.7967 99.5148 60.6926C99.5221 60.584 99.57 60.4822 99.649 60.4074Z" fill="#FBFCFC"/>
<path d="M114.696 62.7935C114.496 62.804 114.306 62.8848 114.159 63.0216C113.99 63.1656 113.885 63.3707 113.867 63.5919C113.852 63.6927 113.858 63.7956 113.885 63.8938C113.913 63.9921 113.96 64.0835 114.025 64.1623C114.089 64.2345 114.168 64.292 114.257 64.3308C114.345 64.3696 114.441 64.3888 114.538 64.387C114.752 64.3799 114.958 64.3007 115.122 64.1623C115.254 64.0029 115.338 63.8101 115.367 63.6053C115.386 63.4057 115.339 63.2053 115.233 63.035C115.087 62.8954 114.897 62.8102 114.696 62.7935Z" fill="#F9BFB3"/>
<path d="M114.36 63.3065C114.441 63.2318 114.543 63.1838 114.652 63.1689C114.704 63.1723 114.755 63.1862 114.801 63.2099C114.847 63.2336 114.888 63.2664 114.921 63.3065C114.958 63.3455 114.986 63.3931 115.001 63.4451C115.016 63.4971 115.019 63.552 115.008 63.6051C115.003 63.6587 114.986 63.7106 114.96 63.7574C114.933 63.8043 114.897 63.845 114.854 63.8768C114.818 63.9188 114.773 63.9514 114.722 63.9719C114.671 63.9923 114.616 64 114.562 63.9943C114.514 63.999 114.466 63.9905 114.423 63.9698C114.38 63.9491 114.343 63.917 114.317 63.8768C114.283 63.8404 114.258 63.7974 114.243 63.7506C114.227 63.7038 114.221 63.6542 114.226 63.6051C114.242 63.4948 114.288 63.3912 114.36 63.3065Z" fill="#FBFCFC"/>
<path d="M129.897 59.9578C129.789 59.9568 129.682 59.9774 129.583 60.0183C129.483 60.0592 129.393 60.1196 129.317 60.196C129.173 60.3532 129.085 60.5539 129.068 60.7663C129.05 60.9564 129.098 61.1469 129.202 61.3064C129.268 61.3865 129.35 61.4509 129.444 61.495C129.537 61.5391 129.639 61.5618 129.743 61.5614C129.952 61.5551 130.151 61.4701 130.299 61.3232C130.456 61.1722 130.553 60.9696 130.571 60.7529C130.593 60.5538 130.537 60.354 130.414 60.196C130.352 60.1192 130.273 60.0577 130.183 60.0164C130.094 59.9751 129.996 59.955 129.897 59.9578Z" fill="#F9BFB3"/>
<path d="M129.561 60.4681C129.599 60.429 129.645 60.3981 129.695 60.3773C129.745 60.3565 129.799 60.3463 129.853 60.3473C129.903 60.346 129.952 60.3545 129.998 60.3723C130.044 60.3902 130.086 60.417 130.122 60.4513C130.185 60.5391 130.216 60.6453 130.212 60.7532C130.212 60.8361 130.186 60.9169 130.14 60.9855C130.094 61.0542 130.028 61.1078 129.952 61.1396C129.875 61.1714 129.791 61.1801 129.71 61.1644C129.629 61.1488 129.554 61.1097 129.494 61.0518C129.439 60.9627 129.415 60.8575 129.427 60.7532C129.426 60.6985 129.437 60.6443 129.461 60.5948C129.484 60.5453 129.518 60.5019 129.561 60.4681Z" fill="#FBFCFC"/>
<path d="M144.585 62.4644C144.367 62.4656 144.159 62.5523 144.004 62.706C143.856 62.8624 143.762 63.0623 143.736 63.2763C143.727 63.4778 143.781 63.677 143.89 63.8466C144.034 63.9907 144.227 64.0757 144.43 64.0848C144.633 64.0768 144.825 63.9916 144.967 63.8466C145.051 63.7759 145.12 63.6889 145.17 63.5909C145.219 63.4929 145.249 63.3859 145.256 63.2763C145.268 63.1741 145.258 63.0705 145.227 62.9722C145.197 62.874 145.146 62.7833 145.078 62.706C145.021 62.6298 144.946 62.5682 144.86 62.5263C144.775 62.4843 144.68 62.4631 144.585 62.4644Z" fill="#F9BFB3"/>
<path d="M144.249 62.9906C144.284 62.9481 144.329 62.9148 144.38 62.8937C144.431 62.8727 144.486 62.8645 144.541 62.8698C144.589 62.8634 144.638 62.8714 144.682 62.8929C144.726 62.9144 144.762 62.9484 144.786 62.9906C144.825 63.0262 144.853 63.0712 144.869 63.1212C144.885 63.1712 144.888 63.2245 144.877 63.2758C144.875 63.3299 144.862 63.3831 144.839 63.4322C144.816 63.4812 144.783 63.525 144.742 63.561C144.673 63.6383 144.577 63.6863 144.474 63.6951C144.367 63.6842 144.268 63.6331 144.197 63.5522C144.126 63.4713 144.088 63.3666 144.092 63.259C144.108 63.1526 144.164 63.0565 144.249 62.9906Z" fill="#FBFCFC"/>
<path d="M159.34 64.1616C159.234 64.1642 159.13 64.1881 159.033 64.2319C158.937 64.2757 158.851 64.3385 158.779 64.4166C158.615 64.5571 158.512 64.7554 158.491 64.9701C158.478 65.075 158.487 65.1814 158.518 65.2825C158.548 65.3836 158.6 65.4772 158.669 65.5573C158.733 65.6295 158.812 65.687 158.901 65.7258C158.989 65.7646 159.085 65.7838 159.182 65.782C159.288 65.7906 159.394 65.7731 159.492 65.731C159.59 65.6889 159.676 65.6235 159.742 65.5405C159.911 65.3963 160.016 65.1913 160.034 64.9701C160.047 64.8705 160.038 64.7693 160.01 64.6731C159.981 64.5768 159.932 64.4878 159.866 64.4116C159.801 64.3354 159.72 64.2737 159.63 64.2307C159.539 64.1876 159.44 64.1641 159.34 64.1616Z" fill="#F9BFB3"/>
<path d="M159.004 64.6718C159.084 64.6005 159.189 64.5632 159.296 64.5678C159.347 64.5658 159.397 64.5753 159.444 64.5956C159.49 64.616 159.531 64.6466 159.564 64.6852C159.629 64.7723 159.661 64.879 159.655 64.9871C159.636 65.1012 159.581 65.206 159.497 65.2857C159.424 65.3537 159.329 65.392 159.229 65.3931C159.12 65.3897 159.016 65.3468 158.937 65.2723C158.88 65.1886 158.857 65.0872 158.87 64.9871C158.882 64.871 158.929 64.7612 159.004 64.6718Z" fill="#FBFCFC"/>
<path d="M174.027 66.5342C173.826 66.5372 173.634 66.6177 173.49 66.759C173.405 66.8326 173.336 66.9224 173.285 67.0232C173.235 67.124 173.206 67.2337 173.199 67.3461C173.186 67.4483 173.195 67.5521 173.226 67.6504C173.257 67.7488 173.308 67.8394 173.376 67.9164C173.434 67.9937 173.508 68.0569 173.593 68.1011C173.679 68.1453 173.773 68.1693 173.869 68.1714C174.086 68.158 174.291 68.073 174.453 67.9298C174.606 67.7768 174.701 67.575 174.722 67.3595C174.744 67.1509 174.688 66.9415 174.564 66.7724C174.496 66.6979 174.413 66.6383 174.32 66.5973C174.228 66.5563 174.128 66.5348 174.027 66.5342Z" fill="#F9BFB3"/>
<path d="M173.715 67.0539C173.787 66.9801 173.882 66.9328 173.984 66.9196C174.041 66.9162 174.099 66.9253 174.153 66.9461C174.207 66.9669 174.255 66.9991 174.296 67.0404C174.336 67.1356 174.352 67.2394 174.343 67.3424C174.332 67.4502 174.292 67.5532 174.228 67.641C174.141 67.7179 174.032 67.7649 173.916 67.7752C173.815 67.7612 173.72 67.714 173.648 67.641C173.59 67.5531 173.566 67.4468 173.581 67.3424C173.582 67.2876 173.594 67.2336 173.617 67.1839C173.641 67.1342 173.674 67.0899 173.715 67.0539Z" fill="#FBFCFC"/>
<path fill-rule="evenodd" clip-rule="evenodd" d="M184.974 42.7342C184.303 49.9271 183.639 57.1144 182.982 64.2962C182.324 71.4779 181.661 78.6495 180.992 85.8111C163.35 85.5562 145.699 85.3068 128.038 85.063C110.378 84.8192 92.7257 84.5486 75.0812 84.2511C75.054 84.3747 75.0383 84.5004 75.0342 84.6269C92.7682 84.9109 110.487 85.1804 128.189 85.4354C145.892 85.6904 163.605 85.9375 181.328 86.1768C181.999 78.9571 182.67 71.7038 183.341 64.4672C184.012 57.2307 184.662 49.9606 185.354 42.7241L184.974 42.7342Z" fill="#EDF0FF"/>
<path fill-rule="evenodd" clip-rule="evenodd" d="M217.866 47.5081C215.517 45.1362 213.555 43.697 208.553 44.6732C203.55 45.6495 197.381 52.4734 197.871 59.2671C198.36 66.0608 203.829 70.6335 210.163 69.5801C209.874 65.316 209.559 61.0519 209.247 56.8046C212.132 53.7114 215.005 50.6125 217.866 47.5081Z" fill="#EDF0FF"/>
<path fill-rule="evenodd" clip-rule="evenodd" d="M218.312 64.9405C220.597 62.1928 221.908 58.0193 221.667 54.6879C221.425 51.3565 220.392 49.3569 218.758 47.5386C215.87 50.6486 212.981 53.7854 210.092 56.8786C212.847 59.5625 215.578 62.2465 218.309 64.9304L218.312 64.9405Z" fill="#C8CEF0"/>
<path fill-rule="evenodd" clip-rule="evenodd" d="M211.015 70.5567C213.881 69.9968 216.462 68.4544 218.312 66.1954C215.581 63.4779 212.874 60.7906 210.143 58.1201C210.455 62.2634 210.747 66.4201 211.015 70.55V70.5567Z" fill="#D7DCF7"/>
<path fill-rule="evenodd" clip-rule="evenodd" d="M238.398 85.3613C229.452 85.2272 220.505 85.0974 211.559 84.9722C211.267 87.9916 211.022 91.011 210.73 94.0304C215.142 94.1076 219.507 94.1814 223.895 94.272C223.828 95.0839 223.761 95.879 223.693 96.6741C216.393 96.5231 209.053 96.3889 201.729 96.2547C201.642 97.2142 201.551 98.1603 201.46 99.1064C198.84 99.046 196.244 99.0024 193.623 98.942C193.445 100.926 193.266 102.907 193.087 104.887C195.707 104.964 198.304 105.021 200.924 105.081C200.746 106.839 200.588 108.567 200.431 110.308C197.498 110.218 194.586 110.144 191.654 110.067C191.496 111.674 191.362 113.251 191.228 114.827L184.736 114.646C184.579 116.24 184.424 117.817 184.29 119.39L197.253 119.796C197.388 118.206 197.542 116.612 197.7 115.022L191.745 114.841C191.879 113.445 192.013 112.05 192.124 110.667L209.163 111.117C209.053 112.529 208.915 113.925 208.781 115.337C206.365 115.277 203.948 115.207 201.528 115.126C201.37 116.733 201.216 118.327 201.081 119.917L214.021 120.323C214.155 118.716 214.313 117.126 214.471 115.502C212.746 115.441 211.042 115.398 209.321 115.354C209.455 113.761 209.61 112.17 209.744 110.547L200.967 110.322L201.44 105.098L209.274 105.276C209.455 103.28 209.633 101.284 209.811 99.2708C207.214 99.2272 204.594 99.1668 201.977 99.1064C202.044 98.3549 202.131 97.6068 202.199 96.8385C209.341 96.9593 216.484 97.1102 223.626 97.2444C223.559 98.0395 223.492 98.8078 223.425 99.5727C220.828 99.5123 218.208 99.4519 215.611 99.4083C215.41 101.421 215.253 103.434 215.075 105.414C220.493 105.548 225.864 105.669 231.262 105.803C231.439 103.776 231.618 101.763 231.799 99.7639C229.179 99.7036 226.582 99.6432 223.962 99.5962C224.029 98.8313 224.096 98.0664 224.163 97.2713C231.32 97.4368 238.463 97.581 245.591 97.704C245.524 98.4857 245.457 99.2506 245.39 100.032C242.793 99.9887 240.173 99.9283 237.553 99.8679C237.375 101.881 237.217 103.921 237.039 105.947L244.873 106.128C244.719 107.917 244.562 109.689 244.403 111.442C241.471 111.385 238.539 111.308 235.603 111.234C235.469 112.855 235.335 114.479 235.201 116.082C233.255 116.039 231.329 115.992 229.38 115.918C229.226 117.555 229.088 119.162 228.954 120.782C233.275 120.903 237.576 121.024 241.897 121.158C242.051 119.538 242.189 117.914 242.343 116.294C240.149 116.233 237.932 116.159 235.717 116.099C235.828 114.673 235.962 113.261 236.097 111.835L253.136 112.284C253.025 113.71 252.888 115.136 252.777 116.579C250.583 116.505 248.389 116.445 246.171 116.398C246.017 118.035 245.883 119.655 245.749 121.279C250.07 121.4 254.391 121.534 258.688 121.638C258.823 120.018 258.957 118.38 259.115 116.743C257.165 116.683 255.24 116.653 253.294 116.579C253.428 114.957 253.562 113.331 253.696 111.701L244.92 111.473C245.074 109.701 245.232 107.93 245.39 106.145C248.01 106.205 250.627 106.262 253.227 106.34C253.404 104.296 253.562 102.253 253.763 100.214C251.143 100.167 248.523 100.106 245.926 100.049C246.017 99.0862 246.104 98.11 246.195 97.1337C238.898 96.9861 231.551 96.8351 224.23 96.7009C224.297 95.9025 224.364 95.1073 224.432 94.2955C228.843 94.3726 233.208 94.4632 237.596 94.537C237.865 91.4907 238.136 88.4277 238.405 85.3781L238.398 85.3613Z" fill="#D7DCF7"/>
<path fill-rule="evenodd" clip-rule="evenodd" d="M259.688 65.061C262.174 60.5721 263.55 57.0092 261.436 50.0612C259.322 43.1132 249.838 37.269 241.642 41.1137C233.446 44.9584 229.014 54.956 231.544 63.6352C236.65 61.2934 241.74 58.9316 246.815 56.5496C251.136 59.4013 255.434 62.2227 259.688 65.061Z" fill="#EDF0FF"/>
<path fill-rule="evenodd" clip-rule="evenodd" d="M238.71 73.428C242.518 75.6322 247.812 75.6926 251.794 73.8776C255.776 72.0626 257.974 69.6437 259.846 66.4297C255.547 63.578 251.234 60.7297 246.906 57.8848C244.17 63.0826 241.438 68.2637 238.71 73.428Z" fill="#C8CEF0"/>
<path fill-rule="evenodd" clip-rule="evenodd" d="M230.494 65.3161C231.548 68.9686 233.96 72.0797 237.234 74.012C239.941 68.8321 242.672 63.6655 245.406 58.4688C240.458 60.7836 235.462 63.065 230.494 65.3161Z" fill="#D7DCF7"/>
<path fill-rule="evenodd" clip-rule="evenodd" d="M180.499 95.1813L177.879 95.1377C177.788 96.2784 177.678 97.419 177.563 98.5597L180.164 98.6033C180.273 97.485 180.385 96.3443 180.499 95.1813Z" fill="#FFE5E0"/>
<path fill-rule="evenodd" clip-rule="evenodd" d="M176.758 95.1208C165.159 94.8971 153.555 94.6734 141.944 94.4498C130.334 94.2261 118.722 94.0025 107.107 93.7788C106.993 94.8725 106.881 95.9685 106.772 97.0666L141.609 97.7879C153.226 98.0272 164.838 98.2721 176.446 98.5226C176.557 97.3954 176.671 96.2547 176.758 95.1141V95.1208Z" fill="#FFE5E0"/>
<path fill-rule="evenodd" clip-rule="evenodd" d="M179.872 101.878C178.999 101.878 178.147 101.834 177.251 101.817C177.141 102.975 177.027 104.099 176.939 105.243C177.812 105.27 178.684 105.286 179.536 105.303C179.647 104.159 179.758 103.035 179.872 101.878Z" fill="#EDF0FF"/>
<path fill-rule="evenodd" clip-rule="evenodd" d="M176.131 101.787C164.532 101.532 152.927 101.273 141.317 101.009C129.707 100.745 118.087 100.484 106.456 100.227C106.346 101.338 106.231 102.435 106.121 103.528C117.742 103.813 129.384 104.092 140.982 104.37C152.579 104.649 164.221 104.941 175.819 105.226C175.909 104.085 176.02 102.945 176.131 101.787Z" fill="#EDF0FF"/>
<path fill-rule="evenodd" clip-rule="evenodd" d="M179.154 109.4C178.305 109.4 177.429 109.356 176.557 109.339C176.446 110.497 176.332 111.637 176.221 112.778C177.117 112.808 177.969 112.825 178.842 112.855C178.952 111.715 179.043 110.557 179.154 109.4Z" fill="#EDF0FF"/>
<path fill-rule="evenodd" clip-rule="evenodd" d="M175.436 109.325C163.842 109.01 152.197 108.705 140.599 108.396C129.001 108.087 117.36 107.796 105.742 107.494C105.628 108.607 105.517 109.718 105.406 110.815C117.027 111.127 128.669 111.452 140.267 111.775C151.865 112.097 163.506 112.445 175.104 112.781C175.218 111.64 175.329 110.5 175.44 109.342L175.436 109.325Z" fill="#EDF0FF"/>
<path d="M110.734 44.1772C103.017 45.4521 95.3514 46.7136 87.6284 47.9314C87.6284 48.0958 87.6485 48.2669 87.6485 48.4245C95.3513 47.2235 103.053 45.9822 110.754 44.7006C110.757 44.5259 110.75 44.3512 110.734 44.1772Z" fill="#FCD0C7"/>
<path fill-rule="evenodd" clip-rule="evenodd" d="M162.979 40.5264C153.921 40.6337 144.863 40.7008 135.805 40.7813C126.747 40.8619 117.645 40.9625 108.576 41.0229C108.331 43.4686 108.087 45.9311 107.862 48.3802C116.92 48.35 126.019 48.2896 135.087 48.246C144.155 48.2024 153.223 48.1554 162.262 48.095C162.506 45.5721 162.731 43.0627 162.976 40.5264H162.979Z" fill="#FFE5E0"/>
<path fill-rule="evenodd" clip-rule="evenodd" d="M147.765 42.4052C136.101 42.479 124.428 42.5684 112.747 42.6736C112.636 44.0155 112.502 45.3575 112.391 46.6994C124.055 46.6391 135.719 46.5742 147.383 46.5049C147.497 45.136 147.631 43.7706 147.765 42.4052ZM159.474 43.6364C159.541 43.3009 159.564 42.9453 159.608 42.583C159.654 42.5896 159.699 42.6067 159.737 42.6328C159.776 42.6589 159.809 42.6935 159.833 42.7339C159.878 42.8396 159.893 42.9557 159.876 43.0694C159.873 43.1784 159.834 43.2834 159.766 43.368C159.698 43.4861 159.596 43.5809 159.474 43.6398V43.6364ZM159.205 47.0752C159.231 46.8805 159.246 46.6845 159.249 46.4881C159.401 46.4874 159.552 46.4552 159.691 46.3934C159.83 46.3316 159.955 46.2416 160.057 46.1291C160.264 45.8494 160.381 45.5137 160.393 45.1662C160.393 45.1361 160.393 45.0924 160.393 45.0622C160.17 45.0455 159.945 45.0455 159.722 45.0622C159.722 45.0924 159.742 45.1059 159.742 45.136C159.744 45.1617 159.744 45.1875 159.742 45.2132C159.726 45.3823 159.673 45.5459 159.588 45.693C159.553 45.7467 159.506 45.7921 159.452 45.8257C159.397 45.8594 159.336 45.8805 159.272 45.8875C159.316 45.4514 159.339 45.0018 159.383 44.5657C159.707 44.4088 159.996 44.19 160.235 43.9216C160.404 43.7001 160.506 43.4345 160.527 43.1567C160.577 42.8758 160.52 42.5866 160.369 42.3448C160.285 42.2426 160.179 42.1611 160.059 42.1065C159.938 42.0518 159.807 42.0254 159.675 42.0294C159.698 41.9086 159.698 41.7744 159.722 41.6369C159.617 41.6302 159.512 41.6302 159.407 41.6369C159.383 41.7879 159.383 41.9086 159.363 42.0428C159.228 42.0328 159.092 42.0518 158.964 42.0987C158.837 42.1455 158.721 42.2192 158.625 42.3146C158.432 42.5439 158.314 42.8276 158.289 43.1265C158.286 43.1554 158.286 43.1847 158.289 43.2137C158.511 43.2137 158.736 43.2137 158.937 43.2137C158.935 43.1992 158.935 43.1846 158.937 43.1701C158.939 43.0242 158.986 42.8825 159.071 42.7641C159.103 42.7222 159.144 42.6872 159.19 42.6612C159.236 42.6353 159.287 42.6189 159.339 42.6132C159.296 43.0023 159.249 43.4083 159.229 43.7974C158.882 43.9596 158.57 44.1875 158.31 44.4684C158.131 44.6929 158.023 44.9647 157.998 45.2501C157.951 45.5571 158.014 45.8706 158.175 46.1358C158.265 46.2512 158.381 46.3438 158.513 46.4061C158.646 46.4685 158.791 46.4988 158.937 46.4948C158.912 46.6895 158.897 46.8855 158.893 47.0819C158.997 47.0735 159.101 47.0735 159.205 47.0819V47.0752ZM159.027 45.8875C158.973 45.8842 158.92 45.8674 158.873 45.8388C158.826 45.8101 158.787 45.7704 158.759 45.7232C158.724 45.6705 158.7 45.6112 158.688 45.5489C158.677 45.4866 158.678 45.4226 158.692 45.3608C158.699 45.2339 158.737 45.1105 158.803 45.0019C158.888 44.8755 159.004 44.7719 159.138 44.6999C159.095 45.1059 159.048 45.4984 159.027 45.8875ZM151.549 42.375C150.405 42.375 149.221 42.375 148.057 42.4052C147.923 43.7706 147.789 45.136 147.674 46.5049C148.862 46.5049 150.023 46.5048 151.19 46.4746C151.301 45.1327 151.435 43.7404 151.549 42.375ZM153.452 42.3448C152.915 42.3448 152.398 42.3448 151.885 42.3448C151.751 43.7136 151.616 45.0924 151.502 46.4612C152.019 46.4612 152.556 46.4612 153.069 46.4612C153.183 45.0958 153.317 43.7136 153.452 42.3481V42.3448ZM155.334 42.328C154.817 42.328 154.28 42.328 153.743 42.3448C153.609 43.727 153.475 45.0924 153.361 46.4579C153.921 46.4579 154.438 46.4579 154.975 46.4579C155.085 45.0891 155.22 43.7102 155.334 42.3414V42.328ZM157.236 42.328C156.699 42.328 156.183 42.328 155.622 42.328C155.512 43.7102 155.377 45.0757 155.267 46.4445C155.803 46.4445 156.34 46.4445 156.853 46.4277C156.968 45.0622 157.102 43.6968 157.236 42.3146V42.328Z" fill="#FCD0C7"/>
<path d="M108.338 43.1265C107.857 43.139 107.399 43.3374 107.06 43.68C106.7 44.0072 106.477 44.4573 106.433 44.9415C106.406 45.1694 106.426 45.4004 106.491 45.6202C106.557 45.8401 106.667 46.0441 106.815 46.2197C106.961 46.3904 107.143 46.5252 107.349 46.6137C107.555 46.7021 107.779 46.7418 108.003 46.7296C108.24 46.7319 108.475 46.6865 108.694 46.596C108.913 46.5055 109.111 46.3718 109.278 46.2029C109.638 45.8704 109.861 45.4161 109.905 44.928C109.935 44.7018 109.919 44.4717 109.857 44.2519C109.796 44.0321 109.69 43.8272 109.546 43.6498C109.389 43.4875 109.202 43.3577 108.994 43.2679C108.787 43.1781 108.564 43.13 108.338 43.1265Z" fill="#F9BFB3"/>
<path d="M107.597 44.2806C107.778 44.1214 108.007 44.027 108.248 44.0122C108.366 44.0063 108.484 44.0275 108.592 44.074C108.701 44.1205 108.798 44.1911 108.875 44.2806C108.953 44.3722 109.009 44.48 109.04 44.596C109.07 44.7121 109.075 44.8335 109.053 44.9516C109.032 45.1984 108.921 45.429 108.741 45.599C108.56 45.771 108.32 45.8671 108.07 45.8674C107.955 45.8689 107.842 45.8457 107.737 45.7994C107.632 45.753 107.539 45.6847 107.463 45.599C107.317 45.416 107.245 45.185 107.261 44.9516C107.299 44.6978 107.416 44.4627 107.597 44.2806Z" fill="#FBFCFC"/>
<path fill-rule="evenodd" clip-rule="evenodd" d="M94.8213 147.602C95.1899 149.529 95.853 151.388 96.7873 153.114C97.8575 155.093 96.2438 163.541 93.5766 161.695C92.0502 160.639 94.8213 147.605 94.8213 147.605V147.602Z" fill="#F9BFB3"/>
<path fill-rule="evenodd" clip-rule="evenodd" d="M95.375 149.447C95.375 149.447 95.1066 154.664 94.6839 157.905C94.6067 158.499 94.2041 162.689 94.127 165.245C94.0498 167.802 93.9726 171.12 93.9056 174.77C93.711 185.402 94.1303 196.953 94.3383 201.965L83.7134 201.385C84.2837 176.582 85.2902 152.883 85.2902 152.883L95.375 149.447Z" fill="#073C82"/>
<path fill-rule="evenodd" clip-rule="evenodd" d="M73.0247 149.316C73.0247 149.316 71.515 152.299 71.4512 162.669C71.3875 173.039 73.0247 175.887 73.0247 178.35C73.0247 180.054 74.2559 191.856 74.9303 200.905L88.9504 201.673C88.9168 189.26 89.2222 167.678 90.487 165.151C92.1644 161.796 94.7778 154.372 95.3616 151.061C95.9453 147.75 73.0247 149.31 73.0247 149.31V149.316Z" fill="#1860BD"/>
<path fill-rule="evenodd" clip-rule="evenodd" d="M73.0248 149.316C73.0248 149.316 72.5551 150.245 72.129 152.862C76.9232 155.073 90.1214 155.096 94.5633 154.281C94.9759 153.302 94.9726 153.275 95.3618 151.067C95.7509 148.86 73.0248 149.316 73.0248 149.316Z" fill="#073C82"/>
<path fill-rule="evenodd" clip-rule="evenodd" d="M81.7474 73.3682C82.5071 72.6885 83.4109 72.1895 84.391 71.9088C83.2184 71.9552 82.0844 72.341 81.1267 73.0193C81.328 73.1233 81.536 73.2374 81.7474 73.3548V73.3682ZM86.2664 71.7679C89.9568 72.2276 91.9698 76.9681 87.8399 78.9072C85.213 80.1418 82.8478 81.1449 82.8478 81.1449C82.8478 81.1449 78.5065 83.3155 78.3455 83.9966C78.1844 84.6776 81.8446 88.0225 81.7809 90.0555C81.7171 92.0886 81.9084 92.4509 80.4389 92.6791C78.9695 92.9072 76.2956 93.558 76.2956 93.558C76.2956 93.558 74.6752 92.0047 73.5211 91.9343C67.9084 91.5988 66.6704 87.6266 68.4888 83.4128C66.1403 76.703 73.7627 75.6596 73.8969 75.7972C73.8969 75.7972 75.9669 70.7246 80.7174 72.8247C81.4935 72.2261 82.3996 71.8186 83.3624 71.635C84.3252 71.4514 85.3177 71.4969 86.2597 71.7679H86.2664Z" fill="#29235C"/>
<path fill-rule="evenodd" clip-rule="evenodd" d="M142.974 63.783L142.216 63.6187L138.002 83.3522L138.761 83.5166L142.974 63.783Z" fill="#3B347A"/>
<path fill-rule="evenodd" clip-rule="evenodd" d="M77.094 93.2559C77.094 94.6515 77.094 97.9527 76.1546 99.9086C75.2152 101.865 74.6282 103.2 74.6282 103.2L85.4075 105.377C84.8405 102.767 84.354 96.9899 84.9076 95.7687C83.1597 95.6345 79.9222 95.1313 77.094 93.2559Z" fill="#F9BFB3"/>
<path fill-rule="evenodd" clip-rule="evenodd" d="M77.0941 93.2559C77.1046 94.4773 77.0441 95.6983 76.913 96.9127C78.9259 98.1507 82.2808 99.033 84.6661 98.4123C84.646 97.1912 84.7131 96.1981 84.9077 95.7687C83.1598 95.6345 79.9223 95.1313 77.0941 93.2559Z" fill="#E8A597"/>
<path fill-rule="evenodd" clip-rule="evenodd" d="M76.423 100.683C76.423 100.683 72.4676 103.827 71.0753 106.772C69.683 109.718 68.6765 115.878 69.324 120.863C69.9715 125.848 74.0813 135.118 72.7729 140.237C71.4645 145.357 69.6495 146.135 70.4245 148.598C71.7396 152.765 93.1204 152.352 95.7036 151.07C95.7036 151.07 96.9919 149.765 96.6028 142.183C96.2136 134.601 96.1499 133.175 95.6332 128.428C95.1165 123.681 95.1132 117.669 94.724 116.569C94.3349 115.468 92.5198 105.779 76.4197 100.66L76.423 100.683Z" fill="#EDF0FF"/>
<path fill-rule="evenodd" clip-rule="evenodd" d="M72.4642 133.414C72.9942 135.97 73.2358 138.382 72.7594 140.244C71.8636 143.743 70.7465 145.213 70.3573 146.578C75.0542 149.369 80.6233 148.132 81.868 145.733C83.1126 143.334 77.2684 144.243 76.8356 140.291C76.5739 137.825 74.202 135.108 72.4541 133.414H72.4642Z" fill="#D7DCF7"/>
<path fill-rule="evenodd" clip-rule="evenodd" d="M94.714 116.593C94.5194 116.039 92.9929 109.326 87.8029 104.901C81.5292 104.596 76.7317 106.803 76.3727 111.245C76.0137 115.687 80.0228 119.498 85.129 119.897C91.5637 120.397 93.5968 123.534 93.6873 127.372C93.7127 127.953 93.6858 128.534 93.6068 129.11C93.5246 129.854 93.3991 130.592 93.2311 131.321C92.9124 134.407 94.6435 135.501 96.2505 135.79C96.0895 133.085 95.9452 131.428 95.6198 128.452C95.5359 127.694 94.9991 117.405 94.7106 116.593H94.714Z" fill="#D7DCF7"/>
<path fill-rule="evenodd" clip-rule="evenodd" d="M85.1459 80.1381C85.1459 80.1381 87.1857 82.7986 88.125 85.0363C89.0644 87.274 91.7886 88.2738 91.8154 88.7267C91.8423 89.1796 89.6113 90.2498 89.6113 90.2498C89.8207 90.7573 89.953 91.2933 90.0038 91.84C89.3675 92.1474 88.6891 92.3589 87.9908 92.4674C86.8871 92.5949 88.9638 93.4739 89.4402 93.8429C89.9166 94.2119 88.9738 94.4871 88.9738 95.0742C88.8876 95.7689 88.5382 96.4041 87.9976 96.8489C85.4713 98.4861 80.6537 97.2079 78.379 95.5304C75.6012 93.4839 76.0004 93.437 76.8223 90.7665C76.4982 90.6418 76.2038 90.4504 75.9582 90.2048C75.7126 89.9592 75.5212 89.6648 75.3965 89.3406C74.9772 88.2402 76.4667 87.0559 77.6343 87.8175C78.1351 88.1599 78.56 88.6019 78.8823 89.1158C79.1305 89.4983 79.9257 91.689 79.9659 91.7058C80.3014 91.8367 81.489 91.9977 81.328 90.9308C81.167 89.864 80.3551 88.304 79.4493 87.2035C78.5434 86.1031 78.1509 86.4252 77.698 85.2577C76.5272 82.2383 82.784 81.1647 85.1526 80.1348L85.1459 80.1381Z" fill="#F9BFB3"/>
<path fill-rule="evenodd" clip-rule="evenodd" d="M85.1459 80.1382C85.1459 80.1382 85.5149 80.6213 86.0115 81.3459C85.0654 81.6579 83.7637 82.0438 82.2406 82.386C79.815 82.9295 78.255 84.362 77.8457 85.61C77.7953 85.5094 77.745 85.3953 77.6913 85.2745C76.5205 82.2551 82.7774 81.1816 85.1459 80.1516V80.1382Z" fill="#F0B0A3"/>
<path fill-rule="evenodd" clip-rule="evenodd" d="M84.7299 83.9426C84.5008 84.0342 84.3054 84.1941 84.1703 84.4007C84.0353 84.6073 83.9672 84.8504 83.9753 85.0971C83.9833 85.3438 84.0672 85.582 84.2154 85.7793C84.3636 85.9766 84.569 86.1234 84.8037 86.1999C85.0384 86.2763 85.2909 86.2786 85.5269 86.2064C85.7629 86.1342 85.9709 85.9911 86.1227 85.7965C86.2745 85.6019 86.3626 85.3653 86.3752 85.1188C86.3877 84.8723 86.324 84.628 86.1927 84.419C86.0594 84.1642 85.8318 83.9717 85.5584 83.8827C85.285 83.7937 84.9877 83.8152 84.7299 83.9426Z" fill="#342D6E"/>
<path fill-rule="evenodd" clip-rule="evenodd" d="M85.4443 82.0032C85.4443 82.0032 82.3712 81.2651 82.1632 84.5462L82.9449 84.5965C83.0925 82.2481 85.2598 82.7648 85.2665 82.7648L85.4443 82.0032Z" fill="#29235C"/>
<path fill-rule="evenodd" clip-rule="evenodd" d="M130.618 87.3408C130.618 87.3408 133.014 85.0125 133.131 84.8414C133.654 83.8272 134.07 82.7613 134.372 81.6609C134.748 80.215 136.164 79.2924 137.553 78.7992C138.942 78.3061 139.371 78.7992 139.371 78.7992C139.371 78.7992 140.713 73.7669 141.216 73.5689C141.72 73.371 141.968 73.8239 141.998 74.8337C142.028 75.8436 141.512 80.0137 141.512 80.0137C142.632 79.9734 142.971 81.3825 142.609 82.238C143.649 82.805 143.713 83.1371 143.555 84.2509C143.555 84.2509 144.189 84.5663 143.937 85.6667C143.686 86.7671 140.945 89.2497 138.851 89.6926C136.758 90.1354 136.251 89.9509 135.788 90.5884C135.325 91.2258 134.852 91.8833 134.852 91.8833L130.618 87.3375V87.3408Z" fill="#F9BFB3"/>
<path fill-rule="evenodd" clip-rule="evenodd" d="M130.618 87.3411C130.618 87.3411 131.524 86.4621 132.249 85.7441L136.104 90.2833C135.98 90.3657 135.873 90.4703 135.788 90.592C135.325 91.226 134.852 91.887 134.852 91.887L130.618 87.3411Z" fill="#F0B0A3"/>
<path d="M87.813 120.199C87.813 120.199 90.4265 124.023 89.0141 132.612L89.3999 132.676C90.8358 123.953 88.1452 120.008 88.1385 119.994L87.803 120.212L87.813 120.199ZM94.7241 147.431C94.7241 147.431 89.0577 150.759 76.9431 149.088L76.8928 149.474C89.1416 151.151 94.9019 147.796 94.9187 147.769L94.7275 147.434L94.7241 147.431ZM94.5194 143.187C94.5194 143.187 94.4255 146.877 80.0431 147.374V147.763C94.7946 147.236 94.9086 143.21 94.9086 143.21L94.5194 143.183V143.187ZM75.2154 106.447C75.2154 106.447 70.3306 109.534 75.1583 117.022L75.4938 116.81C70.8741 109.651 75.4234 106.783 75.4368 106.776L75.2187 106.44L75.2154 106.447ZM84.5789 119.229C84.5789 119.253 83.8375 127.301 76.8626 131.787L77.0739 132.122C84.2165 127.533 84.9748 119.296 84.9781 119.273L84.5889 119.236L84.5789 119.229ZM85.8001 122.222C85.8001 122.269 85.2331 138.124 77.1679 142.865L77.3659 143.2C85.6189 138.349 86.1892 122.282 86.1892 122.239H85.8001V122.222Z" fill="#BFD2FC"/>
<path fill-rule="evenodd" clip-rule="evenodd" d="M75.9099 97.9761L75.4906 101.475C75.4906 101.475 78.9394 101.881 81.2577 102.837C83.5759 103.793 85.9377 105.803 85.9377 105.803C85.9377 105.803 87.3636 100.341 75.9099 97.9761Z" fill="#C8CEF0"/>
<path fill-rule="evenodd" clip-rule="evenodd" d="M77.2854 110.597C76.9298 114.811 81.6468 117.012 85.5485 117.595C89.4503 118.179 99.4177 117.984 104.567 117.595C109.717 117.206 110.076 117.173 112.619 116.072C115.162 114.972 136.184 92.0813 136.184 92.0813L130.816 85.9888C130.816 85.9888 114.595 102.206 108.57 104.005C99.2499 106.782 78.0839 100.777 77.2518 110.597H77.2854Z" fill="#EDF0FF"/>
<path fill-rule="evenodd" clip-rule="evenodd" d="M98.3843 117.894C100.706 117.827 102.89 117.723 104.567 117.596C109.721 117.207 110.076 117.173 112.619 116.073C114.78 115.143 130.085 98.6875 134.802 93.5947C133.896 93.8062 133.065 94.2622 132.4 94.9132C130.601 96.8221 117.205 112.936 112.874 113.982C108.939 114.932 99.9712 117.455 98.3675 117.908L98.3843 117.894Z" fill="#D7DCF7"/>
<path d="M99.0417 107.681C99.0149 107.702 90.2385 113.982 81.9653 111.835L81.868 112.211C90.3156 114.405 99.243 108.02 99.2698 108.004L99.0417 107.668V107.681ZM128.447 89.2295C128.447 89.2664 126.77 102.273 119.429 105.333L119.577 105.695C127.136 102.555 128.83 89.3268 128.833 89.2899L128.447 89.2396V89.2295ZM114.86 109.416C114.86 109.416 112.109 108.664 110.781 104.169L110.405 104.28C111.797 108.976 114.743 109.788 114.766 109.792L114.874 109.416H114.86ZM109.532 104.169C109.532 104.169 109.197 105.306 109.653 109.624L110.042 109.584C109.593 105.343 109.905 104.283 109.905 104.28L109.532 104.169ZM108.707 105.045C108.707 105.045 106.755 107.51 107.647 112.07L108.029 111.996C107.174 107.611 109.009 105.286 109.016 105.286L108.707 105.048V105.045ZM104.577 106.789C102.654 108.879 100.326 110.558 97.7365 111.724C95.1465 112.891 92.3471 113.521 89.5071 113.576V113.969C99.2363 113.838 104.856 107.047 104.873 107.031L104.571 106.779L104.577 106.789Z" fill="#BFD2FC"/>
<path fill-rule="evenodd" clip-rule="evenodd" d="M75.752 88.861C75.752 88.861 76.1478 87.925 77.0402 88.0961C77.5278 88.2255 77.9626 88.5045 78.2834 88.8939C78.6041 89.2832 78.7948 89.7634 78.8284 90.2667C78.8855 91.3202 76.8389 90.5653 76.7484 89.9849C76.6578 89.4045 77.8186 90.1862 77.8186 89.6494C77.8186 89.1126 77.0067 88.7067 77.0235 89.0757C77.0403 89.4448 75.6043 89.5924 75.752 88.8677V88.861Z" fill="#E8A597"/>
<path d="M74.494 173.538C74.494 173.592 77.6644 188.327 79.05 201.129L79.4458 201.153C78.0603 188.31 74.8899 173.511 74.8765 173.454L74.494 173.538ZM89.1717 157.056C89.1717 157.056 84.6224 162.373 84.2098 175.843H84.6493C85.062 162.548 89.5005 157.354 89.5139 157.341L89.1784 157.059L89.1717 157.056Z" fill="#3174E8"/>
<path fill-rule="evenodd" clip-rule="evenodd" d="M84.8104 84.6704C84.7791 84.67 84.7481 84.6757 84.719 84.6873C84.6899 84.6988 84.6634 84.716 84.641 84.7378C84.6185 84.7596 84.6006 84.7856 84.5883 84.8144C84.5759 84.8431 84.5693 84.874 84.5689 84.9053C84.5758 84.964 84.6041 85.0181 84.6483 85.0574C84.6925 85.0967 84.7496 85.1184 84.8087 85.1184C84.8679 85.1184 84.925 85.0967 84.9692 85.0574C85.0134 85.0181 85.0416 84.964 85.0486 84.9053C85.0486 84.8742 85.0424 84.8433 85.0304 84.8146C85.0184 84.7859 85.0008 84.7599 84.9786 84.738C84.9565 84.7162 84.9302 84.6989 84.9013 84.6873C84.8724 84.6757 84.8415 84.67 84.8104 84.6704Z" fill="#FBFCFC"/>
</svg>
