<svg width="275" height="264" viewBox="0 0 275 264" fill="none" xmlns="http://www.w3.org/2000/svg">
<path fill-rule="evenodd" clip-rule="evenodd" d="M161.382 169.646C161.382 169.646 94.349 106.364 18.4822 116.364C-57.3846 126.365 153.074 180.179 153.074 180.179L161.382 169.646Z" fill="#AFE0D9"/>
<path d="M19.402 125.353C19.5913 125.371 87.1759 130.593 156.414 176.164L158.067 173.682C88.1906 127.698 19.8423 122.401 19.6691 122.376L19.3805 125.316L19.402 125.353Z" fill="#6BADA6"/>
<path fill-rule="evenodd" clip-rule="evenodd" d="M160.118 171.248C160.118 171.248 82.9705 120.788 75.0249 44.6844C67.0793 -31.4193 168.426 160.716 168.426 160.716L160.118 171.248Z" fill="#AFE0D9"/>
<path fill-rule="evenodd" clip-rule="evenodd" d="M163.163 166.565C163.163 166.565 130.091 121.467 154.565 66.3935C179.04 11.3199 173.002 160.066 173.002 160.066L163.163 166.565Z" fill="#AFE0D9"/>
<path d="M83.9763 43.492C84.0323 43.6783 104.854 108.183 165.29 164.912L163.261 167.098C102.27 109.85 81.203 44.6139 81.1384 44.4513L83.9302 43.4861L83.9763 43.492Z" fill="#6BADA6"/>
<path d="M161.173 66.6141C161.139 66.7533 150.056 115.115 169.201 162.676L166.95 163.988C147.628 115.992 158.83 67.0809 158.85 66.9575L161.144 66.6044L161.173 66.6141Z" fill="#6BADA6"/>
<path fill-rule="evenodd" clip-rule="evenodd" d="M176.67 150.458L145.012 190.591L199.551 233.612L231.209 193.479L176.67 150.458Z" fill="#F8F9FF"/>
<path fill-rule="evenodd" clip-rule="evenodd" d="M176.67 150.458L160.839 170.528L215.377 213.549L231.209 193.479L176.67 150.458Z" fill="#9EA7DB"/>
</svg>
