<svg width="264" height="340" viewBox="0 0 264 340" fill="none" xmlns="http://www.w3.org/2000/svg">
<path d="M102.739 216.055C102.739 200.429 106.176 187.616 113.052 177.615C119.927 167.302 129.928 156.051 143.054 143.863C152.117 135.425 158.836 128.393 163.211 122.768C167.587 116.83 169.774 110.579 169.774 104.017C169.774 94.9535 165.868 87.7655 158.055 82.4527C150.554 76.8273 140.71 74.0147 128.522 74.0147C116.021 74.0147 104.614 76.9836 94.3007 82.9215C84.3 88.8594 76.1745 97.1411 69.9241 107.767L0.0759277 70.2644C12.8892 48.388 31.0154 31.3557 54.4544 19.1674C77.8934 6.97916 106.176 0.88501 139.304 0.88501C176.493 0.88501 206.339 8.69802 228.841 24.324C251.654 39.6375 263.061 61.2014 263.061 89.0156C263.061 101.829 260.874 113.236 256.499 123.237C252.123 132.925 246.81 141.206 240.56 148.082C234.622 154.645 226.809 162.145 217.121 170.583C206.495 179.646 198.682 187.459 193.682 194.022C188.682 200.273 186.182 207.617 186.182 216.055H102.739ZM144.46 339.813C129.147 339.813 116.49 335.125 106.489 325.749C96.4883 316.061 91.488 304.342 91.488 290.591C91.488 276.528 96.3321 264.964 106.02 255.901C116.021 246.838 128.834 242.307 144.46 242.307C160.086 242.307 172.899 246.838 182.9 255.901C192.901 264.964 197.901 276.528 197.901 290.591C197.901 304.342 192.901 316.061 182.9 325.749C172.899 335.125 160.086 339.813 144.46 339.813Z" fill="#221B60"/>
</svg>
